<svg width="30" height="30" viewBox="0 0 30 30" fill="none" xmlns="http://www.w3.org/2000/svg">
<g clip-path="url(#clip0_801_1687)">
<path d="M15.0067 8.26172C10.7477 8.26172 7.31248 11.2676 7.31248 14.9941C7.31248 18.7207 10.7477 21.7266 15.0067 21.7266C19.2656 21.7266 22.7009 18.7207 22.7009 14.9941C22.7009 11.2676 19.2656 8.26172 15.0067 8.26172ZM15.0067 19.3711C12.2544 19.3711 10.0044 17.4082 10.0044 14.9941C10.0044 12.5801 12.2477 10.6172 15.0067 10.6172C17.7656 10.6172 20.0089 12.5801 20.0089 14.9941C20.0089 17.4082 17.7589 19.3711 15.0067 19.3711V19.3711ZM24.8102 7.98633C24.8102 8.85937 24.0067 9.55664 23.0156 9.55664C22.0178 9.55664 21.221 8.85351 21.221 7.98633C21.221 7.11914 22.0245 6.41601 23.0156 6.41601C24.0067 6.41601 24.8102 7.11914 24.8102 7.98633ZM29.9062 9.58007C29.7924 7.47656 29.2433 5.61328 27.4821 4.07812C25.7276 2.54297 23.5982 2.0625 21.1942 1.95703C18.7165 1.83398 11.2902 1.83398 8.81248 1.95703C6.41516 2.05664 4.2857 2.53711 2.52454 4.07226C0.763379 5.60742 0.220969 7.4707 0.100433 9.57422C-0.0401916 11.7422 -0.0401916 18.2402 0.100433 20.4082C0.214272 22.5117 0.763379 24.375 2.52454 25.9101C4.2857 27.4453 6.40846 27.9258 8.81248 28.0312C11.2902 28.1543 18.7165 28.1543 21.1942 28.0312C23.5982 27.9316 25.7276 27.4512 27.4821 25.9101C29.2366 24.375 29.7857 22.5117 29.9062 20.4082C30.0468 18.2402 30.0468 11.748 29.9062 9.58007V9.58007ZM26.7053 22.7344C26.183 23.8828 25.1718 24.7676 23.8527 25.2305C21.8772 25.916 17.1897 25.7578 15.0067 25.7578C12.8236 25.7578 8.12945 25.9101 6.1607 25.2305C4.8482 24.7734 3.83704 23.8887 3.30802 22.7344C2.52454 21.0059 2.70534 16.9043 2.70534 14.9941C2.70534 13.084 2.53124 8.97656 3.30802 7.2539C3.83034 6.10547 4.8415 5.2207 6.1607 4.75781C8.13614 4.07226 12.8236 4.23047 15.0067 4.23047C17.1897 4.23047 21.8839 4.07812 23.8527 4.75781C25.1651 5.21484 26.1763 6.09961 26.7053 7.2539C27.4888 8.98242 27.308 13.084 27.308 14.9941C27.308 16.9043 27.4888 21.0117 26.7053 22.7344Z" fill="black"/>
</g>
<defs>
<clipPath id="clip0_801_1687">
<rect width="30" height="30" fill="white"/>
</clipPath>
</defs>
</svg>
