<svg width="18" height="18" viewBox="0 0 18 18" fill="none" xmlns="http://www.w3.org/2000/svg">
<g clip-path="url(#clip0_801_2047)">
<path d="M17.6293 3.39393H7.13207C7.05854 3.38672 6.98457 3.40073 6.91732 3.43461C6.85007 3.46848 6.7918 3.52108 6.74814 3.58732C6.70448 3.65356 6.6769 3.73121 6.66806 3.81277C6.65923 3.89434 6.66944 3.97706 6.69771 4.05295L8.35814 9.46586C8.40652 9.61527 8.49379 9.74525 8.60881 9.83924C8.72384 9.93323 8.8614 9.98697 9.00398 9.99361H15.8856C16.0283 9.98698 16.1659 9.93323 16.2811 9.83922C16.3962 9.7452 16.4835 9.61518 16.532 9.46571L17.9781 3.92318C18.0008 3.86221 18.0089 3.7958 18.0017 3.73033C17.9946 3.66486 17.9724 3.60253 17.9374 3.54935C17.9024 3.49617 17.8556 3.45393 17.8016 3.42668C17.7477 3.39943 17.6883 3.38811 17.6293 3.39379V3.39393Z" fill="black"/>
<path d="M9.6517 16.2299C9.6517 16.5754 9.55962 16.9132 9.38711 17.2006C9.21459 17.4879 8.96939 17.7118 8.68252 17.8441C8.39564 17.9763 8.07997 18.0109 7.77542 17.9435C7.47087 17.8761 7.19113 17.7097 6.97156 17.4653C6.75199 17.221 6.60246 16.9097 6.54189 16.5707C6.48131 16.2318 6.5124 15.8805 6.63123 15.5612C6.75006 15.242 6.95129 14.9691 7.20947 14.7771C7.46765 14.5851 7.77119 14.4827 8.08171 14.4827C8.28788 14.4827 8.49204 14.5279 8.68252 14.6157C8.873 14.7035 9.04607 14.8322 9.19186 14.9944C9.33764 15.1567 9.45329 15.3493 9.53219 15.5612C9.61109 15.7732 9.6517 16.0004 9.6517 16.2299Z" fill="black"/>
<path d="M16.2956 16.2511C16.2956 16.5967 16.2035 16.9345 16.031 17.2218C15.8585 17.5091 15.6133 17.7331 15.3264 17.8653C15.0395 17.9976 14.7238 18.0322 14.4193 17.9648C14.1147 17.8973 13.835 17.7309 13.6154 17.4866C13.3959 17.2422 13.2463 16.9309 13.1857 16.592C13.1252 16.2531 13.1563 15.9017 13.2751 15.5825C13.3939 15.2632 13.5951 14.9904 13.8533 14.7984C14.1115 14.6064 14.4151 14.5039 14.7256 14.5039C15.1419 14.5041 15.5411 14.6883 15.8355 15.0159C16.1299 15.3435 16.2953 15.7878 16.2956 16.2511V16.2511Z" fill="black"/>
<path d="M16.6117 11.7713H7.42713L3.7512 0H0.889124C0.653314 3.91049e-09 0.427162 0.104249 0.260418 0.289814C0.0936753 0.47538 0 0.72706 0 0.989489C0 1.25192 0.0936753 1.5036 0.260418 1.68916C0.427162 1.87473 0.653314 1.97898 0.889124 1.97898H2.48689L6.16281 13.7502H16.6117C16.7285 13.7502 16.8441 13.7247 16.952 13.6749C17.0598 13.6252 17.1578 13.5523 17.2404 13.4604C17.323 13.3686 17.3885 13.2595 17.4331 13.1394C17.4778 13.0194 17.5008 12.8907 17.5008 12.7608C17.5008 12.6308 17.4778 12.5021 17.4331 12.3821C17.3885 12.262 17.323 12.153 17.2404 12.0611C17.1578 11.9692 17.0598 11.8963 16.952 11.8466C16.8441 11.7969 16.7285 11.7713 16.6117 11.7713V11.7713Z" fill="black"/>
</g>
<defs>
<clipPath id="clip0_801_2047">
<rect width="18" height="18" fill="white"/>
</clipPath>
</defs>
</svg>
